<svg width="400" height="400" viewBox="0 0 400 400" fill="none" xmlns="http://www.w3.org/2000/svg">
  <rect width="400" height="400" fill="#F9FAFB"/>
  <rect opacity="0.1" x="50" y="50" width="300" height="300" rx="24" fill="url(#paint0_linear)"/>
  <path d="M200 120C162.65 120 132 150.65 132 188C132 225.35 162.65 256 200 256C237.35 256 268 225.35 268 188C268 150.65 237.35 120 200 120ZM200 240C171.5 240 148 216.5 148 188C148 159.5 171.5 136 200 136C228.5 136 252 159.5 252 188C252 216.5 228.5 240 200 240Z" fill="#8072DB" fill-opacity="0.5"/>
  <path d="M204 172H196V180H204V172Z" fill="#8072DB" fill-opacity="0.7"/>
  <path d="M204 188H196V220H204V188Z" fill="#8072DB" fill-opacity="0.7"/>
  <defs>
    <linearGradient id="paint0_linear" x1="50" y1="50" x2="350" y2="350" gradientUnits="userSpaceOnUse">
      <stop stop-color="#B86FBF"/>
      <stop offset="0.5" stop-color="#8072DB"/>
      <stop offset="1" stop-color="#5A8BEA"/>
    </linearGradient>
  </defs>
</svg>
